<svg width="32" height="32" viewBox="0 0 32 32" fill="none" xmlns="http://www.w3.org/2000/svg">
<rect width="32" height="32" fill="#F5F5F5"/>
<path d="M3 25.7714V11.2571M3 6V11.2571M3 11.2571C3 11.2571 4.53671 4.51426 8.50654 8.62857M8.50654 8.62857C12.4764 12.7429 8.6346 26 8.6346 26M8.50654 8.62857C8.50654 8.62857 9.2749 4.97142 13.3728 7.25714C13.8641 7.53119 14.5145 8.62857 14.5145 8.62857M13.3728 25.7714C11.58 24.0571 14.0686 15.3233 14.5145 8.62857M14.5145 8.62857C14.5145 8.62857 16.062 23.8286 20.0319 25.7714C24.0017 27.7143 19.0074 6.45714 20.0319 6.68571C21.0563 6.91428 26.1787 25.7714 26.1787 25.7714C26.1787 25.7714 30.2766 7.25714 26.1787 7.25714" stroke="#171717"/>
</svg>
