<svg width="64" height="64" viewBox="0 0 64 64" fill="none" xmlns="http://www.w3.org/2000/svg">
<rect width="64" height="64" fill="#F5F5F5"/>
<path d="M8 50.5543V22.2514M8 12V22.2514M8 22.2514C8 22.2514 10.9505 9.10281 18.5726 17.1257M18.5726 17.1257C26.1946 25.1486 18.8184 51 18.8184 51M18.5726 17.1257C18.5726 17.1257 20.0478 9.99428 27.9158 14.4514C28.8591 14.9858 30.1078 17.1257 30.1078 17.1257M27.9158 50.5543C24.4735 47.2114 29.2518 30.1804 30.1078 17.1257M30.1078 17.1257C30.1078 17.1257 33.0791 46.7657 40.7012 50.5543C48.3233 54.3429 38.7342 12.8914 40.7012 13.3371C42.6682 13.7829 52.5031 50.5543 52.5031 50.5543C52.5031 50.5543 60.3711 14.4514 52.5031 14.4514" stroke="#171717" stroke-width="3"/>
</svg>
