<svg width="512" height="512" viewBox="0 0 512 512" fill="none" xmlns="http://www.w3.org/2000/svg">
<rect width="512" height="512" fill="#F5F5F5"/>
<path d="M51 447.509V162.303M51 59V162.303M51 162.303C51 162.303 76.1405 29.8052 141.087 110.651M141.087 110.651C206.034 191.497 143.182 452 143.182 452M141.087 110.651C141.087 110.651 153.657 38.7885 220.699 83.7028C228.737 89.0878 239.377 110.651 239.377 110.651M220.699 447.509C191.368 413.823 232.083 242.202 239.377 110.651M239.377 110.651C239.377 110.651 264.695 409.331 329.641 447.509C394.588 485.686 312.881 67.9828 329.641 72.4742C346.402 76.9656 430.204 447.509 430.204 447.509C430.204 447.509 497.245 83.7028 430.204 83.7028" stroke="#171717" stroke-width="24"/>
</svg>
